# WaveFront *.obj file (generated by Autodesk ATF)

mtllib 742b2675-b837-4130-ae05-2e06c16f66ff.mtl

g Body1

v 0.000000 0.000000 0.000000
v 15.000000 0.000000 0.000000
v 15.000000 0.000000 10.000000
v 0.000000 0.000000 10.000000
v 4.000000 3.000000 0.000000
v 4.000000 3.000000 10.000000
v 9.000000 3.000000 0.000000
v 9.000000 3.000000 10.000000
v 9.000000 5.000000 0.000000
v 9.258819 4.965926 0.000000
v 9.500000 4.866025 0.000000
v 9.707107 4.707107 0.000000
v 9.866025 4.500000 0.000000
v 9.965926 4.258819 0.000000
v 10.000000 4.000000 0.000000
v 9.965926 3.741181 0.000000
v 9.866025 3.500000 0.000000
v 9.707107 3.292893 0.000000
v 9.500000 3.133975 0.000000
v 9.258819 3.034074 0.000000
v 9.258819 3.034074 10.000000
v 9.500000 3.133975 10.000000
v 9.707107 3.292893 10.000000
v 9.866025 3.500000 10.000000
v 9.965926 3.741181 10.000000
v 10.000000 4.000000 10.000000
v 9.965926 4.258819 10.000000
v 9.866025 4.500000 10.000000
v 9.707107 4.707107 10.000000
v 9.500000 4.866025 10.000000
v 9.258819 4.965926 10.000000
v 9.000000 5.000000 10.000000
v 13.500000 5.000000 0.000000
v 13.500000 5.000000 10.000000
v 15.000000 3.500000 0.000000
v 14.948889 3.888229 0.000000
v 14.799038 4.250000 0.000000
v 14.560660 4.560660 0.000000
v 14.250000 4.799038 0.000000
v 13.888229 4.948889 0.000000
v 13.888229 4.948889 10.000000
v 14.250000 4.799038 10.000000
v 14.560660 4.560660 10.000000
v 14.799038 4.250000 10.000000
v 14.948889 3.888229 10.000000
v 15.000000 3.500000 10.000000
vt 0.000000 0.000000 0.000000
vt 15.000000 0.000000 0.000000
vt 0.000000 10.000000 0.000000
vt 15.000000 10.000000 0.000000
vt -0.000000 0.000000 0.000000
vt 5.000000 0.000000 0.000000
vt -0.000000 10.000000 0.000000
vt 5.000000 10.000000 0.000000
vt -0.000000 0.000000 0.000000
vt 5.000000 0.000000 0.000000
vt -0.000000 10.000000 0.000000
vt 5.000000 10.000000 0.000000
vt 10.000000 -3.141593 0.000000
vt 0.000000 -3.141593 0.000000
vt 10.000000 -3.403392 0.000000
vt 0.000000 -3.403392 0.000000
vt 10.000000 -3.665191 0.000000
vt 0.000000 -3.665191 0.000000
vt 10.000000 -3.926991 0.000000
vt -0.000000 -3.926991 0.000000
vt 10.000000 -4.188790 0.000000
vt -0.000000 -4.188790 0.000000
vt 10.000000 -4.450590 0.000000
vt 0.000000 -4.450590 0.000000
vt 10.000000 -4.712389 0.000000
vt 0.000000 -4.712389 0.000000
vt 10.000000 -4.974188 0.000000
vt 0.000000 -4.974188 0.000000
vt 10.000000 -5.235988 0.000000
vt -0.000000 -5.235988 0.000000
vt 10.000000 -5.497787 0.000000
vt -0.000000 -5.497787 0.000000
vt 10.000000 -5.759587 0.000000
vt -0.000000 -5.759587 0.000000
vt 10.000000 -6.021386 0.000000
vt 0.000000 -6.021386 0.000000
vt 10.000000 -6.283185 0.000000
vt 0.000000 -6.283185 0.000000
vt 0.000000 0.000000 0.000000
vt 4.500000 0.000000 0.000000
vt 0.000000 10.000000 0.000000
vt 4.500000 10.000000 0.000000
vt -10.000000 0.000000 0.000000
vt -0.000000 0.000000 0.000000
vt -10.000000 0.392699 0.000000
vt -0.000000 0.392699 0.000000
vt -10.000000 0.785398 0.000000
vt -0.000000 0.785398 0.000000
vt -10.000000 1.178097 0.000000
vt -0.000000 1.178097 0.000000
vt -10.000000 1.570796 0.000000
vt -0.000000 1.570796 0.000000
vt -10.000000 1.963495 0.000000
vt -0.000000 1.963495 0.000000
vt -10.000000 2.356194 0.000000
vt -0.000000 2.356194 0.000000
vt 0.000000 0.000000 0.000000
vt 3.500000 0.000000 0.000000
vt 0.000000 10.000000 0.000000
vt 3.500000 10.000000 0.000000
vt 7.500000 1.000000 0.000000
vt 1.758819 0.534074 0.000000
vt 7.500000 -2.500000 0.000000
vt 1.500000 0.500000 0.000000
vt -7.500000 -2.500000 0.000000
vt -3.500000 0.500000 0.000000
vt 7.448889 1.388229 0.000000
vt 2.465926 1.241181 0.000000
vt 2.366025 1.000000 0.000000
vt 2.207107 0.792893 0.000000
vt 2.500000 1.500000 0.000000
vt 7.299038 1.750000 0.000000
vt 2.465926 1.758819 0.000000
vt 7.060660 2.060660 0.000000
vt 6.750000 2.299038 0.000000
vt 6.388229 2.448889 0.000000
vt 6.000000 2.500000 0.000000
vt 1.500000 2.500000 0.000000
vt 1.758819 2.465926 0.000000
vt 2.000000 2.366025 0.000000
vt 2.207107 2.207107 0.000000
vt 2.366025 2.000000 0.000000
vt 2.000000 0.633975 0.000000
vt -7.500000 -2.500000 0.000000
vt -1.758819 0.534074 0.000000
vt -7.500000 1.000000 0.000000
vt -2.000000 0.633975 0.000000
vt -2.207107 0.792893 0.000000
vt -1.500000 0.500000 0.000000
vt 7.500000 -2.500000 0.000000
vt 3.500000 0.500000 0.000000
vt -2.366025 1.000000 0.000000
vt -2.465926 1.241181 0.000000
vt -7.448889 1.388229 0.000000
vt -2.500000 1.500000 0.000000
vt -7.299038 1.750000 0.000000
vt -2.465926 1.758819 0.000000
vt -7.060660 2.060660 0.000000
vt -6.750000 2.299038 0.000000
vt -6.000000 2.500000 0.000000
vt -6.388229 2.448889 0.000000
vt -2.366025 2.000000 0.000000
vt -2.207107 2.207107 0.000000
vt -2.000000 2.366025 0.000000
vt -1.758819 2.465926 0.000000
vt -1.500000 2.500000 0.000000
vn 0.000000 -1.000000 0.000000
vn 0.000000 -1.000000 0.000000
vn 0.000000 -1.000000 0.000000
vn 0.000000 -1.000000 0.000000
vn -0.600000 0.800000 0.000000
vn -0.600000 0.800000 0.000000
vn -0.600000 0.800000 0.000000
vn -0.600000 0.800000 0.000000
vn 0.000000 1.000000 0.000000
vn 0.000000 1.000000 0.000000
vn 0.000000 1.000000 0.000000
vn 0.000000 1.000000 0.000000
vn 0.000000 -1.000000 0.000000
vn 0.000000 -1.000000 0.000000
vn -0.258819 -0.965926 0.000000
vn -0.258819 -0.965926 0.000000
vn -0.500000 -0.866025 0.000000
vn -0.500000 -0.866025 0.000000
vn -0.707107 -0.707107 0.000000
vn -0.707107 -0.707107 0.000000
vn -0.866025 -0.500000 0.000000
vn -0.866025 -0.500000 0.000000
vn -0.965926 -0.258819 0.000000
vn -0.965926 -0.258819 0.000000
vn -1.000000 -0.000000 0.000000
vn -1.000000 -0.000000 0.000000
vn -0.965926 0.258819 0.000000
vn -0.965926 0.258819 0.000000
vn -0.866025 0.500000 0.000000
vn -0.866025 0.500000 0.000000
vn -0.707107 0.707107 0.000000
vn -0.707107 0.707107 0.000000
vn -0.500000 0.866025 0.000000
vn -0.500000 0.866025 0.000000
vn -0.258819 0.965926 0.000000
vn -0.258819 0.965926 0.000000
vn 0.000000 1.000000 -0.000000
vn 0.000000 1.000000 -0.000000
vn 0.000000 1.000000 -0.000000
vn 0.000000 1.000000 -0.000000
vn 1.000000 -0.000000 -0.000000
vn 1.000000 -0.000000 -0.000000
vn 0.965926 0.258819 -0.000000
vn 0.965926 0.258819 -0.000000
vn 0.866025 0.500000 -0.000000
vn 0.866025 0.500000 -0.000000
vn 0.707107 0.707107 -0.000000
vn 0.707107 0.707107 -0.000000
vn 0.500000 0.866025 -0.000000
vn 0.500000 0.866025 -0.000000
vn 0.258819 0.965926 -0.000000
vn 0.258819 0.965926 -0.000000
vn 1.000000 0.000000 0.000000
vn 1.000000 0.000000 0.000000
vn 0.000000 0.000000 1.000000
vn 0.000000 0.000000 1.000000
vn 0.000000 0.000000 1.000000
vn 0.000000 0.000000 1.000000
vn 0.000000 0.000000 1.000000
vn 0.000000 0.000000 1.000000
vn 0.000000 0.000000 1.000000
vn 0.000000 0.000000 1.000000
vn 0.000000 0.000000 1.000000
vn 0.000000 0.000000 1.000000
vn 0.000000 0.000000 1.000000
vn 0.000000 0.000000 1.000000
vn 0.000000 0.000000 1.000000
vn 0.000000 0.000000 1.000000
vn 0.000000 0.000000 1.000000
vn 0.000000 0.000000 1.000000
vn 0.000000 0.000000 1.000000
vn 0.000000 0.000000 1.000000
vn 0.000000 0.000000 1.000000
vn 0.000000 0.000000 1.000000
vn 0.000000 0.000000 1.000000
vn 0.000000 0.000000 1.000000
vn 0.000000 0.000000 1.000000
vn -0.000000 -0.000000 -1.000000
vn -0.000000 -0.000000 -1.000000
vn -0.000000 -0.000000 -1.000000
vn -0.000000 -0.000000 -1.000000
vn -0.000000 -0.000000 -1.000000
vn -0.000000 -0.000000 -1.000000
vn -0.000000 -0.000000 -1.000000
vn -0.000000 -0.000000 -1.000000
vn -0.000000 -0.000000 -1.000000
vn -0.000000 -0.000000 -1.000000
vn -0.000000 -0.000000 -1.000000
vn -0.000000 -0.000000 -1.000000
vn -0.000000 -0.000000 -1.000000
vn -0.000000 -0.000000 -1.000000
vn -0.000000 -0.000000 -1.000000
vn -0.000000 -0.000000 -1.000000
vn -0.000000 -0.000000 -1.000000
vn -0.000000 -0.000000 -1.000000
vn -0.000000 -0.000000 -1.000000
vn -0.000000 -0.000000 -1.000000
vn -0.000000 -0.000000 -1.000000
vn -0.000000 -0.000000 -1.000000
vn -0.000000 -0.000000 -1.000000
usemtl Steel_-_Satin
f 1/1/1 2/2/2 4/3/3
f 4/3/3 2/2/2 3/4/4
f 5/5/5 1/6/6 6/7/7
f 6/7/7 1/6/6 4/8/8
f 7/9/9 5/10/10 8/11/11
f 8/11/11 5/10/10 6/12/12
f 32/13/13 9/14/14 31/15/15
f 31/15/15 9/14/14 10/16/16
f 31/15/15 10/16/16 30/17/17
f 30/17/17 10/16/16 11/18/18
f 30/17/17 11/18/18 29/19/19
f 29/19/19 11/18/18 12/20/20
f 29/19/19 12/20/20 28/21/21
f 28/21/21 12/20/20 13/22/22
f 28/21/21 13/22/22 27/23/23
f 27/23/23 13/22/22 14/24/24
f 27/23/23 14/24/24 26/25/25
f 26/25/25 14/24/24 15/26/26
f 26/25/25 15/26/26 25/27/27
f 25/27/27 15/26/26 16/28/28
f 25/27/27 16/28/28 24/29/29
f 24/29/29 16/28/28 17/30/30
f 24/29/29 17/30/30 23/31/31
f 23/31/31 17/30/30 18/32/32
f 23/31/31 18/32/32 22/33/33
f 22/33/33 18/32/32 19/34/34
f 22/33/33 19/34/34 21/35/35
f 21/35/35 19/34/34 20/36/36
f 21/35/35 20/36/36 8/37/11
f 8/37/11 20/36/36 7/38/9
f 33/39/37 9/40/38 34/41/39
f 34/41/39 9/40/38 32/42/40
f 46/43/41 35/44/42 45/45/43
f 45/45/43 35/44/42 36/46/44
f 45/45/43 36/46/44 44/47/45
f 44/47/45 36/46/44 37/48/46
f 44/47/45 37/48/46 43/49/47
f 43/49/47 37/48/46 38/50/48
f 43/49/47 38/50/48 42/51/49
f 42/51/49 38/50/48 39/52/50
f 42/51/49 39/52/50 41/53/51
f 41/53/51 39/52/50 40/54/52
f 41/53/51 40/54/52 34/55/39
f 34/55/39 40/54/52 33/56/37
f 2/57/53 35/58/42 3/59/54
f 3/59/54 35/58/42 46/60/41
f 46/61/55 21/62/56 3/63/57
f 3/63/57 21/62/56 8/64/58
f 3/63/57 8/64/58 4/65/59
f 4/65/59 8/64/58 6/66/60
f 45/67/61 25/68/62 46/61/55
f 46/61/55 25/68/62 24/69/63
f 46/61/55 24/69/63 23/70/64
f 25/68/62 45/67/61 26/71/65
f 26/71/65 45/67/61 44/72/66
f 26/71/65 44/72/66 27/73/67
f 27/73/67 44/72/66 43/74/68
f 27/73/67 43/74/68 42/75/69
f 41/76/70 34/77/71 42/75/69
f 42/75/69 34/77/71 27/73/67
f 32/78/72 31/79/73 34/77/71
f 34/77/71 31/79/73 30/80/74
f 34/77/71 30/80/74 29/81/75
f 29/81/75 28/82/76 34/77/71
f 34/77/71 28/82/76 27/73/67
f 23/70/64 22/83/77 46/61/55
f 46/61/55 22/83/77 21/62/56
f 2/84/78 20/85/79 35/86/80
f 35/86/80 20/85/79 19/87/81
f 35/86/80 19/87/81 18/88/82
f 20/85/79 2/84/78 7/89/83
f 7/89/83 2/84/78 1/90/84
f 7/89/83 1/90/84 5/91/85
f 18/88/82 17/92/86 35/86/80
f 35/86/80 17/92/86 16/93/87
f 35/86/80 16/93/87 36/94/88
f 36/94/88 16/93/87 15/95/89
f 36/94/88 15/95/89 37/96/90
f 37/96/90 15/95/89 14/97/91
f 37/96/90 14/97/91 38/98/92
f 38/98/92 14/97/91 39/99/93
f 39/99/93 14/97/91 33/100/94
f 39/99/93 33/100/94 40/101/95
f 14/97/91 13/102/96 33/100/94
f 33/100/94 13/102/96 12/103/97
f 33/100/94 12/103/97 11/104/98
f 11/104/98 10/105/99 33/100/94
f 33/100/94 10/105/99 9/106/100
# 46 vertices
# 106 texture params
# 100 normals
# 88 facets

# 1 groups
